<svg width="100" height="68" viewBox="75 125 350 330" fill="none" xmlns="http://www.w3.org/2000/svg">
  <path d="M250 135 L150 160 V260 C150 310 185 355 250 375 C315 355 350 310 350 260 V160 L250 135 Z" 
        stroke="#382975" stroke-width="12" stroke-linejoin="round" fill="none"/>
  
  <g fill="#382975">
    <path d="M165 178H200C225 178 245 190 245 215C245 240 225 252 200 252H195V305H180V195H165V178ZM195 238H200C215 238 230 230 230 215C230 200 215 192 200 192H195V238Z" />
    <path d="M255 310H270V235L285 275H300L315 235V275H322V210H305L285 255L265 210H255V310Z" />
    <path d="M245 165L250 155L255 165H245Z" /> 
    <rect x="242" y="315" width="10" height="10" /> 
  </g>

  <text x="250" y="445" text-anchor="middle" font-family="Arial, sans-serif" font-weight="bold" font-size="44" fill="#382975">Portfolio Maker</text>
</svg>